<svg width="130" height="130" viewBox="0 0 130 130" fill="none" xmlns="http://www.w3.org/2000/svg">
<path d="M130 63.3154C130 54.7029 119.215 46.54 102.678 41.4808C106.497 24.6295 104.802 11.2179 97.3267 6.92246C95.5154 5.90803 93.4655 5.39741 91.39 5.44371V11.3479C92.6087 11.3479 93.5892 11.5916 94.4125 12.0412C98.0146 14.1104 99.58 21.9754 98.3612 32.0991C98.0687 34.5908 97.5921 37.2125 97.0071 39.8883C91.4693 38.5538 85.8488 37.5893 80.1829 37.0012C76.8075 32.3444 73.125 27.9182 69.16 23.752C77.7996 15.7245 85.9083 11.3262 91.4225 11.3262V5.41663C84.1317 5.41663 74.5929 10.6112 64.9458 19.6191C55.3042 10.6708 45.76 5.52496 38.4746 5.52496V11.4291C43.9617 11.4291 52.0975 15.8058 60.7371 23.7791C57.0267 27.6791 53.3163 32.0991 49.79 37.0012C44.1124 37.5828 38.4819 38.5565 32.9387 39.9154C32.3529 37.3792 31.892 34.8159 31.5575 32.2345C30.3117 22.1054 31.85 14.2404 35.4304 12.1495C36.2212 11.6729 37.2558 11.4562 38.4746 11.4562V5.55204C36.2537 5.55204 34.2333 6.02871 32.4892 7.03079C25.0413 11.3262 23.3729 24.7054 27.2133 41.5079C10.7304 46.5995 0 54.73 0 63.3154C0 71.9279 10.7846 80.0908 27.3217 85.1445C23.5029 102.001 25.1983 115.413 32.6733 119.703C34.3958 120.71 36.4108 121.187 38.6317 121.187C45.9225 121.187 55.4613 115.992 65.1083 106.985C74.75 115.938 84.2887 121.079 91.5796 121.079C93.671 121.123 95.7365 120.611 97.565 119.595C105.013 115.305 106.681 101.925 102.841 85.1229C119.27 80.0637 130 71.9008 130 63.3154ZM95.4958 45.6408C94.4666 49.1825 93.2736 52.6746 91.9208 56.1058C89.7063 51.7982 87.2747 47.6058 84.6354 43.5445C88.4 44.1025 92.0292 44.7904 95.5013 45.6408H95.4958ZM83.3625 73.8616C81.3785 77.3254 79.2478 80.703 76.9763 83.9854C69.0259 84.6861 61.0298 84.6952 53.0779 84.0125C48.5168 77.4972 44.5279 70.5995 41.1558 63.3966C44.5227 56.1768 48.4947 49.2548 53.0292 42.705C60.9775 42.0028 68.9718 41.9919 76.9221 42.6725C79.1212 45.825 81.2717 49.1941 83.3354 52.7475C85.3504 56.2141 87.1812 59.735 88.8496 63.2883C87.1627 66.8847 85.3322 70.412 83.3625 73.8616V73.8616ZM91.9208 70.4166C93.3508 73.9645 94.575 77.5179 95.5771 80.9629C92.1104 81.8133 88.4487 82.5283 84.6625 83.0808C87.2909 78.9826 89.7133 74.756 91.9208 70.4166V70.4166ZM65.0542 98.6916C62.5896 96.1458 60.125 93.3129 57.6875 90.2091C60.0708 90.3175 62.5083 90.3987 64.9729 90.3987C67.4646 90.3987 69.9292 90.3445 72.3396 90.2091C69.9562 93.3129 67.4917 96.1458 65.0542 98.6916ZM45.3375 83.0808C41.6853 82.5516 38.0595 81.8539 34.4717 80.99C35.4521 77.572 36.6708 74.0458 38.0467 70.525C39.1354 72.6375 40.2783 74.7608 41.5242 76.8841C42.77 79.002 44.0375 81.0712 45.3375 83.0808ZM64.9187 27.9391C67.3833 30.485 69.8479 33.3179 72.2854 36.4216C69.9021 36.3133 67.4646 36.232 65 36.232C62.5083 36.232 60.0438 36.2862 57.6333 36.4216C60.0167 33.3179 62.4812 30.485 64.9187 27.9391ZM45.3104 43.55C42.6826 47.6392 40.2602 51.8568 38.0521 56.187C36.6612 52.7337 35.4409 49.214 34.3958 45.6408C37.8625 44.8175 41.5242 44.1025 45.3104 43.55ZM21.3308 76.7216C11.9492 72.7241 5.8825 67.4754 5.8825 63.3154C5.8825 59.1554 11.9492 53.8795 21.3308 49.9091C23.6058 48.9287 26.0975 48.0512 28.6704 47.2333C30.1817 52.4225 32.1696 57.8283 34.6287 63.3695C32.307 68.5814 30.3434 73.9455 28.7517 79.4245C26.2354 78.6454 23.7588 77.7434 21.3308 76.7216V76.7216ZM35.5875 114.584C31.9854 112.526 30.42 104.65 31.6387 94.5316C31.9312 92.04 32.4079 89.4129 32.9929 86.7371C38.1821 88.01 43.8533 88.9904 49.8171 89.6296C53.1926 94.2862 56.8751 98.7124 60.84 102.879C52.2004 110.906 44.0917 115.305 38.5775 115.305C37.5372 115.316 36.5101 115.07 35.5875 114.59V114.584ZM98.4425 94.3962C99.6883 104.52 98.15 112.39 94.5696 114.481C93.7787 114.958 92.7442 115.169 91.5254 115.169C86.0383 115.169 77.9025 110.798 69.2629 102.819C73.2113 98.6703 76.869 94.2543 80.21 89.6025C85.8876 89.0209 91.5181 88.0472 97.0613 86.6883C97.6733 89.3641 98.1446 91.9316 98.4425 94.3962V94.3962ZM108.642 76.7216C106.367 77.702 103.875 78.5795 101.302 79.3975C99.6828 73.8904 97.6921 68.4994 95.3442 63.2612C97.7817 57.7525 99.7371 52.3737 101.221 47.2062C103.746 47.9879 106.231 48.8899 108.669 49.9091C118.051 53.9066 124.117 59.1554 124.117 63.3154C124.09 67.4754 118.024 72.7512 108.642 76.7216V76.7216Z" fill="#DB2090"/>
<path d="M64.9729 75.4271C68.1851 75.4271 71.2658 74.151 73.5372 71.8796C75.8085 69.6083 77.0846 66.5276 77.0846 63.3154C77.0846 60.1032 75.8085 57.0225 73.5372 54.7512C71.2658 52.4798 68.1851 51.2037 64.9729 51.2037C61.7607 51.2037 58.6801 52.4798 56.4087 54.7512C54.1373 57.0225 52.8613 60.1032 52.8613 63.3154C52.8613 66.5276 54.1373 69.6083 56.4087 71.8796C58.6801 74.151 61.7607 75.4271 64.9729 75.4271V75.4271Z" fill="#DB2090"/>
</svg>
